<?xml version="1.0" encoding="UTF-8"?>
<svg width="30px" height="30px" viewBox="0 0 30 30" version="1.1" xmlns="http://www.w3.org/2000/svg" xmlns:xlink="http://www.w3.org/1999/xlink">
    <!-- Generator: Sketch 41.1 (35376) - http://www.bohemiancoding.com/sketch -->
    <title>Page 1 Copy</title>
    <desc>Created with Sketch.</desc>
    <defs></defs>
    <g id="Page-1" stroke="none" stroke-width="1" fill="none" fill-rule="evenodd" opacity="0.546535326">
        <g id="0605_" transform="translate(-308.000000, -455.000000)">
            <g id="Group-3" transform="translate(18.000000, 80.000000)">
                <g id="Page-1-Copy" transform="translate(305.000000, 390.000000) rotate(-180.000000) translate(-305.000000, -390.000000) translate(290.000000, 375.000000)">
                    <g id="Group-6" transform="translate(0.000000, -0.000000)">
                        <path d="M30,15 C30,23.2842 23.2842,30 15,30 C6.7158,30 -5.68434189e-14,23.2842 -5.68434189e-14,15 C-5.68434189e-14,6.7158 6.7158,5.68434189e-14 15,5.68434189e-14 C23.2842,5.68434189e-14 30,6.7158 30,15 Z" id="Stroke-1" fill="#E7EAEA"></path>
                        <g id="Group-10" transform="translate(6.000000, 7.000000)" stroke="#20607A" stroke-linecap="round" stroke-linejoin="round">
                            <path d="M16.95,8 L0.8658,8" id="Stroke-5"></path>
                            <polyline id="Stroke-3" points="8.10312 15.23714 0.86592 7.99994 0.86592 7.90754 8.10312 0.67034"></polyline>
                        </g>
                    </g>
                </g>
            </g>
        </g>
    </g>
</svg>