<?xml version="1.0" encoding="UTF-8"?>
<svg width="340px" height="245px" viewBox="0 0 340 245" version="1.1" xmlns="http://www.w3.org/2000/svg" xmlns:xlink="http://www.w3.org/1999/xlink">
    <!-- Generator: Sketch 41.1 (35376) - http://www.bohemiancoding.com/sketch -->
    <title>Page 1</title>
    <desc>Created with Sketch.</desc>
    <defs>
        <linearGradient x1="0%" y1="0%" x2="0%" y2="141.478066%" id="linearGradient-1">
            <stop stop-color="#20607A" offset="0%"></stop>
            <stop stop-color="#44A1B3" offset="24.9387519%"></stop>
            <stop stop-color="#95D0CC" offset="52.8169759%"></stop>
            <stop stop-color="#EDF2D0" offset="100%"></stop>
        </linearGradient>
    </defs>
    <g id="Page-1" stroke="none" stroke-width="1" fill="none" fill-rule="evenodd">
        <g id="Artboard" transform="translate(-102.000000, -472.000000)" fill="url(#linearGradient-1)">
            <path d="M102,595.074 C125.923,665.811 193.147,716.63 271.961,716.63 C350.763,716.63 417.642,665.794 441.573,595.074 C430.738,595.056 419.837,593.095 409.22,591.114 C395.871,588.623 382.596,585.62 369.677,581.407 C355.682,576.841 341.947,571.195 328.854,564.459 C317.203,558.465 306.156,551.412 295.63,543.618 C283.661,534.757 272.64,524.754 262.521,513.832 C258.452,509.441 254.566,504.894 250.744,500.288 C247.564,496.455 244.646,492.433 241.536,488.55 C238.532,484.801 235.247,481.221 231.521,478.177 C227.845,475.173 223.296,472.244 218.375,472.244 C213.59,472.244 209.979,476.374 207.433,479.954 C204.069,484.679 201.41,489.884 199.149,495.213 C196.578,501.274 194.349,507.49 191.984,513.634 C189.583,519.872 187.169,526.107 184.718,532.327 C182.303,538.454 179.812,544.553 177.232,550.614 C174.792,556.35 172.233,562.09 168.913,567.381 C162.879,577 154.47,585.461 144.021,590.168 C137.798,592.97 131.356,593.806 124.612,594.293 C117.092,594.836 109.54,595.074 102,595.074 Z" id="Page-1" style="mix-blend-mode: multiply;"></path>
        </g>
    </g>
</svg>