<?xml version="1.0" encoding="UTF-8"?>
<svg width="350px" height="209px" viewBox="0 0 350 209" version="1.1" xmlns="http://www.w3.org/2000/svg" xmlns:xlink="http://www.w3.org/1999/xlink">
    <!-- Generator: Sketch 41.1 (35376) - http://www.bohemiancoding.com/sketch -->
    <title>Page 1</title>
    <desc>Created with Sketch.</desc>
    <defs>
        <linearGradient x1="0%" y1="0%" x2="0%" y2="141.478066%" id="linearGradient-1">
            <stop stop-color="#20607A" offset="0%"></stop>
            <stop stop-color="#44A1B3" offset="24.9387519%"></stop>
            <stop stop-color="#95D0CC" offset="52.8169759%"></stop>
            <stop stop-color="#EDF2D0" offset="100%"></stop>
        </linearGradient>
    </defs>
    <g id="Page-1" stroke="none" stroke-width="1" fill="none" fill-rule="evenodd">
        <g id="Artboard" transform="translate(-555.000000, -859.000000)" fill="url(#linearGradient-1)">
            <path d="M555,942.471 C579.596,1015.2 648.713,1067.449 729.745,1067.449 C810.765,1067.449 879.526,1015.182 904.132,942.471 C839.326,942.471 825.92,859.363 787.758,859.363 C774.879,859.363 763.931,867.901 754.44,875.662 C752.172,877.518 749.956,879.435 747.691,881.293 C745.498,883.092 743.238,884.811 740.947,886.483 C737.162,889.246 733.278,891.873 729.326,894.39 C723.993,897.787 718.531,900.982 712.972,903.993 C706.158,907.683 699.195,911.097 692.114,914.243 C683.789,917.942 675.301,921.271 666.687,924.234 C656.902,927.599 646.956,930.492 636.897,932.916 C625.729,935.608 614.422,937.72 603.039,939.264 C590.4,940.979 577.669,941.993 564.921,942.338 C561.614,942.427 558.308,942.471 555,942.471 Z" id="Page-1" style="mix-blend-mode: multiply;"></path>
        </g>
    </g>
</svg>