<?xml version="1.0" encoding="UTF-8"?>
<svg width="340px" height="245px" viewBox="0 0 340 245" version="1.1" xmlns="http://www.w3.org/2000/svg" xmlns:xlink="http://www.w3.org/1999/xlink">
    <!-- Generator: Sketch 41.1 (35376) - http://www.bohemiancoding.com/sketch -->
    <title>Page 1</title>
    <desc>Created with Sketch.</desc>
    <defs>
        <linearGradient x1="0%" y1="0%" x2="0%" y2="141.478066%" id="linearGradient-1">
            <stop stop-color="#20607A" offset="0%"></stop>
            <stop stop-color="#44A1B3" offset="24.9387519%"></stop>
            <stop stop-color="#95D0CC" offset="52.8169759%"></stop>
            <stop stop-color="#EDF2D0" offset="100%"></stop>
        </linearGradient>
    </defs>
    <g id="Page-1" stroke="none" stroke-width="1" fill="none" fill-rule="evenodd">
        <g id="Artboard" transform="translate(-506.000000, -491.000000)" fill="url(#linearGradient-1)">
            <path d="M506,614.074 C529.922,684.811 597.146,735.63 675.961,735.63 C754.763,735.63 821.642,684.794 845.573,614.074 C838.033,614.074 830.481,613.836 822.961,613.293 C816.217,612.806 809.774,611.97 803.553,609.168 C793.104,604.461 784.694,596 778.659,586.381 C775.34,581.09 772.781,575.35 770.341,569.614 C767.762,563.553 765.271,557.454 762.855,551.327 C760.404,545.107 757.99,538.872 755.589,532.634 C753.225,526.49 750.995,520.274 748.424,514.213 C746.163,508.884 743.504,503.679 740.141,498.954 C737.594,495.374 733.983,491.244 729.198,491.244 C724.277,491.244 719.729,494.173 716.052,497.177 C712.326,500.221 709.041,503.801 706.037,507.55 C702.927,511.433 700.009,515.455 696.829,519.288 C693.007,523.894 689.121,528.441 685.053,532.832 C674.934,543.754 663.912,553.757 651.943,562.618 C641.417,570.412 630.37,577.465 618.719,583.459 C605.626,590.195 591.892,595.841 577.896,600.407 C564.978,604.62 551.702,607.623 538.354,610.114 C527.736,612.095 516.835,614.056 506,614.074 Z" id="Page-1" style="mix-blend-mode: multiply;"></path>
        </g>
    </g>
</svg>