<?xml version="1.0" encoding="UTF-8"?>
<svg width="233px" height="207px" viewBox="0 0 233 207" version="1.1" xmlns="http://www.w3.org/2000/svg" xmlns:xlink="http://www.w3.org/1999/xlink">
    <!-- Generator: Sketch 41.1 (35376) - http://www.bohemiancoding.com/sketch -->
    <title>Page 1</title>
    <desc>Created with Sketch.</desc>
    <defs>
        <linearGradient x1="0%" y1="0%" x2="0%" y2="141.478066%" id="linearGradient-1">
            <stop stop-color="#20607A" offset="0%"></stop>
            <stop stop-color="#44A1B3" offset="24.9387519%"></stop>
            <stop stop-color="#95D0CC" offset="52.8169759%"></stop>
            <stop stop-color="#EDF2D0" offset="100%"></stop>
        </linearGradient>
    </defs>
    <g id="Page-1" stroke="none" stroke-width="1" fill="none" fill-rule="evenodd">
        <g id="Artboard" transform="translate(-1263.000000, -510.000000)" fill="url(#linearGradient-1)">
            <path d="M1263,633.075 C1279.397,681.559 1325.474,716.391 1379.494,716.391 C1433.506,716.391 1479.347,681.548 1495.749,633.075 C1488.21,633.075 1480.658,632.837 1473.137,632.294 C1466.394,631.807 1459.951,630.971 1453.729,628.169 C1443.28,623.462 1434.871,615.001 1428.836,605.382 C1425.517,600.09 1422.958,594.351 1420.518,588.614 C1417.938,582.554 1415.447,576.455 1413.031,570.327 C1410.58,564.108 1408.167,557.873 1405.766,551.635 C1403.401,545.491 1401.171,539.275 1398.6,533.214 C1396.34,527.884 1393.681,522.68 1390.317,517.955 C1387.77,514.375 1384.16,510.245 1379.375,510.245 C1374.59,510.245 1370.979,514.375 1368.433,517.955 C1365.069,522.68 1362.41,527.884 1360.149,533.214 C1357.578,539.275 1355.349,545.491 1352.984,551.635 C1350.583,557.873 1348.169,564.108 1345.718,570.327 C1343.303,576.455 1340.812,582.554 1338.232,588.614 C1335.792,594.351 1333.233,600.09 1329.914,605.382 C1323.879,615.001 1315.47,623.462 1305.021,628.169 C1298.799,630.971 1292.356,631.807 1285.612,632.294 C1278.092,632.837 1270.54,633.075 1263,633.075 Z" id="Page-1" style="mix-blend-mode: multiply;"></path>
        </g>
    </g>
</svg>