<?xml version="1.0" encoding="UTF-8"?>
<svg width="240px" height="127px" viewBox="0 0 340 127" version="1.1" xmlns="http://www.w3.org/2000/svg" xmlns:xlink="http://www.w3.org/1999/xlink">
    <!-- Generator: Sketch 41.1 (35376) - http://www.bohemiancoding.com/sketch -->
    <title>Stroke 1</title>
    <desc>Created with Sketch.</desc>
    <defs></defs>
    <g id="Page-1" stroke="none" stroke-width="1" fill="none" fill-rule="evenodd">
        <g id="Artboard" transform="translate(-82.000000, -443.000000)" stroke="#44A1B3" stroke-width="4">
            <path d="M421.573,567.83 C410.737,567.812 399.836,565.851 389.219,563.87 C375.87,561.38 362.594,558.377 349.676,554.163 C335.68,549.598 321.946,543.952 308.853,537.216 C297.202,531.222 286.155,524.168 275.63,516.375 C263.66,507.514 252.638,497.511 242.519,486.589 C238.451,482.198 234.565,477.65 230.744,473.045 C227.563,469.212 224.646,465.189 221.535,461.307 C218.531,457.557 215.247,453.977 211.52,450.934 C207.844,447.93 203.295,445 198.374,445 C193.589,445 189.979,449.131 187.431,452.711 C184.068,457.435 181.409,462.64 179.148,467.97 C176.578,474.03 174.347,480.246 171.983,486.391 C169.582,492.629 167.169,498.864 164.717,505.083 C162.302,511.211 159.81,517.309 157.231,523.37 C154.791,529.106 152.232,534.846 148.913,540.138 C142.878,549.757 134.469,558.218 124.019,562.925 C117.798,565.727 111.355,566.562 104.612,567.05 C97.091,567.593 89.539,567.83 82,567.83" id="Stroke-1"></path>
        </g>
    </g>
</svg>